#!OML:ASF F:\VICON\USERDATA\INSTALL\rory3\rory3.ASF
:FULLY-SPECIFIED
:DEGREES
610
root 4.5328 15.5154 2.01496 22.6782 -7.32763 0.830254
lowerback 13.1576 -2.4797 3.31802
upperback 3.68461 -2.83801 -0.11131
thorax -3.65644 -1.41495 -1.52783
lowerneck -14.1171 -0.866032 -2.5456
upperneck 37.5996 0.308109 -2.56072
head 15.6448 -0.634083 -0.602518
rclavicle -3.57812e-014 2.61402e-014
rhumerus -64.9716 62.084 -60.1854
rradius 68.1064
rwrist -19.5365
rhand -7.91935 -39.8797
rfingers 7.12502
rthumb 17.9864 -69.068
lclavicle -3.57812e-014 2.61402e-014
lhumerus -54.487 -72.4339 49.0347
lradius 63.6746
lwrist 43.129
lhand -15.1925 -27.3374
lfingers 7.12502
lthumb 10.9791 2.35548
rfemur -82.8188 -6.43146 22.9913
rtibia 44.8234
rfoot 38.1894 -0.879039
rtoes 5.59199
lfemur -58.7242 -3.58163 -30.532
ltibia 63.2652
lfoot -25.2131 6.83258
ltoes 15.4822
611
root 4.53633 15.5167 2.01628 22.6355 -7.24098 0.77581
lowerback 13.1382 -2.51384 3.49627
upperback 3.73446 -2.86261 -0.143575
thorax -3.60466 -1.42653 -1.65949
lowerneck -14.079 -0.830046 -2.16555
upperneck 37.5551 0.407229 -2.99821
head 15.6149 -0.59764 -0.839419
rclavicle 4.88016e-014 -3.50855e-014
rhumerus -64.8094 62.122 -60.0512
rradius 68.1079
rwrist -19.5627
rhand -7.3281 -40.0151
rfingers 7.12502
rthumb 18.5552 -69.1501
lclavicle 4.88016e-014 -3.50855e-014
lhumerus -54.2961 -72.5345 48.72
lradius 63.6446
lwrist 43.0017
lhand -15.4918 -27.2938
lfingers 7.12502
lthumb 10.6904 2.41419
rfemur -82.8211 -6.59785 23.225
rtibia 44.9323
rfoot 38.2016 -1.1954
rtoes 6.56226
lfemur -58.6594 -3.5752 -30.4914
ltibia 63.2821
lfoot -25.2199 6.80646
ltoes 15.2138
612
root 4.53829 15.5167 2.01912 22.5747 -7.18054 0.733895
lowerback 13.1526 -2.56 3.58929
upperback 3.78544 -2.9116 -0.150156
thorax -3.56636 -1.4498 -1.71115
lowerneck -14.1171 -0.791828 -1.99853
upperneck 37.6208 0.495319 -3.21139
head 15.659 -0.567913 -0.947564
rclavicle -1.63003e-014 3.57812e-015
rhumerus -64.5686 62.2166 -59.8498
rradius 68.0839
rwrist -19.5405
rhand -7.02699 -39.9653
rfingers 7.12502
rthumb 18.8449 -69.0725
lclavicle -1.63003e-014 3.57812e-015
lhumerus -53.945 -72.5919 48.2408
lradius 63.6097
lwrist 42.9373
lhand -15.514 -27.4163
lfingers 7.12502
lthumb 10.669 2.29285
rfemur -82.828 -6.73544 23.419
rtibia 45.0473
rfoot 38.1989 -1.20836
rtoes 6.83904
lfemur -58.5643 -3.52809 -30.4757
ltibia 63.2925
lfoot -25.2757 6.74673
ltoes 15.0502
613
root 4.53901 15.5165 2.0187 22.5447 -7.19163 0.739142
lowerback 13.1706 -2.59663 3.558
upperback 3.81738 -2.96357 -0.152006
thorax -3.54424 -1.47456 -1.68697
lowerneck -14.1683 -0.771435 -2.0948
upperneck 37.693 0.514485 -3.09735
head 15.7076 -0.560209 -0.880565
rclavicle 4.82053e-014 -1.48095e-014
rhumerus -64.3333 62.3916 -59.6768
rradius 68.0833
rwrist -19.6879
rhand -6.56847 -39.9926
rfingers 7.12502
rthumb 19.2858 -69.0563
lclavicle 4.82053e-014 -1.48095e-014
lhumerus -53.6176 -72.4852 47.8381
lradius 63.5175
lwrist 43.0027
lhand -15.9333 -27.7463
lfingers 7.12502
lthumb 10.2645 1.98321
rfemur -82.8955 -6.80042 23.5198
rtibia 45.1672
rfoot 38.2348 -1.32811
rtoes 6.90293
lfemur -58.5451 -3.43029 -30.5275
ltibia 63.3072
lfoot -25.3208 6.62467
ltoes 15.1605
614
root 4.53498 15.5182 2.01535 22.5201 -7.32464 0.780817
lowerback 13.2223 -2.56751 3.37171
upperback 3.82121 -2.94856 -0.172938
thorax -3.5598 -1.46674 -1.60482
lowerneck -14.1697 -0.800307 -2.32556
upperneck 37.7971 0.432355 -2.80307
head 15.7584 -0.589155 -0.729388
rclavicle 1.53064e-014 1.49089e-014
rhumerus -64.1712 62.545 -59.5484
rradius 68.1263
rwrist -19.7864
rhand -5.49274 -40.1639
rfingers 7.12502
rthumb 20.3199 -69.1209
lclavicle 1.53064e-014 1.49089e-014
lhumerus -53.5235 -72.4369 47.691
lradius 63.4377
lwrist 43.1103
lhand -16.653 -28.0475
lfingers 7.12502
lthumb 9.57012 1.71511
rfemur -82.931 -6.64027 23.3945
rtibia 45.2538
rfoot 38.2604 -1.5407
rtoes 7.02489
lfemur -58.5618 -3.2005 -30.644
ltibia 63.3009
lfoot -25.3482 6.4864
ltoes 14.3175
615
root 4.52583 15.5064 2.01348 22.4516 -7.49554 0.92142
lowerback 13.3472 -2.50359 3.06354
upperback 3.82504 -2.90317 -0.235567
thorax -3.61005 -1.44383 -1.49999
lowerneck -14.1923 -0.839944 -2.46881
upperneck 37.9267 0.332641 -2.5715
head 15.8278 -0.621597 -0.624019
rclavicle -4.87022e-015 1.37161e-014
rhumerus -64.0829 62.6228 -59.4498
rradius 68.1865
rwrist -19.7853
rhand -4.97378 -40.0529
rfingers 7.12502
rthumb 20.8186 -68.956
lclavicle -4.87022e-015 1.37161e-014
lhumerus -53.4612 -72.7256 47.5027
lradius 63.5073
lwrist 43.4077
lhand -16.7134 -27.9286
lfingers 7.12502
lthumb 9.51189 1.83674
rfemur -82.9489 -6.39435 23.0423
rtibia 45.3015
rfoot 38.3614 -1.60207
rtoes 7.02925
lfemur -58.566 -2.9576 -30.8659
ltibia 63.3345
lfoot -25.3429 6.38875
ltoes 12.5794
616
root 4.5207 15.5021 2.01123 22.4243 -7.58654 1.04968
lowerback 13.3972 -2.47105 2.86497
upperback 3.83138 -2.88781 -0.298014
thorax -3.62375 -1.43559 -1.45448
lowerneck -14.1397 -0.853996 -2.49534
upperneck 37.8749 0.28189 -2.48034
head 15.7878 -0.632994 -0.587314
rclavicle -3.57812e-015 -9.54166e-015
rhumerus -64.0065 62.6624 -59.397
rradius 68.2107
rwrist -19.7848
rhand -5.33737 -39.7967
rfingers 7.12502
rthumb 20.4692 -68.7377
lclavicle -3.57812e-015 -9.54166e-015
lhumerus -53.3412 -72.9876 47.2406
lradius 63.6025
lwrist 43.5796
lhand -16.7878 -27.6857
lfingers 7.12502
lthumb 9.44007 2.08289
rfemur -82.9665 -6.3186 22.8518
rtibia 45.2886
rfoot 38.4459 -1.50111
rtoes 7.17644
lfemur -58.5719 -2.7766 -31.0652
ltibia 63.3523
lfoot -25.306 6.25277
ltoes 12.7134
617
root 4.52475 15.5128 2.0119 22.6035 -7.61989 0.902468
lowerback 13.1385 -2.45651 3.04496
upperback 3.77624 -2.8532 -0.284639
thorax -3.54708 -1.41929 -1.55591
lowerneck -13.9488 -0.850995 -2.53843
upperneck 37.7632 0.277306 -2.44986
head 15.6851 -0.634467 -0.563838
rclavicle 3.67752e-015 -1.43125e-014
rhumerus -64.1175 62.9039 -59.4747
rradius 68.265
rwrist -19.7868
rhand -5.7905 -39.7357
rfingers 7.12502
rthumb 20.0337 -68.7229
lclavicle 3.67752e-015 -1.43125e-014
lhumerus -53.4065 -72.9725 47.2756
lradius 63.5464
lwrist 43.4289
lhand -17.1883 -27.5167
lfingers 7.12502
lthumb 9.0536 2.26905
rfemur -83.1055 -6.36937 23.2035
rtibia 45.2362
rfoot 38.4891 -1.29437
rtoes 7.44258
lfemur -58.7519 -2.59641 -30.9845
ltibia 63.3524
lfoot -25.2872 6.03812
ltoes 14.5303
